PathFileType	4	(X/Y/Z)	 s02c0203.trc
DataRate	CameraRate	NumFrames	NumMarkers	Units	OrigDataRate	OrigDataStartFrame	OrigNumFrames
200	200	5	51	mm	200	1	2000
Frame#	Time	racr			lacr			c7			jug			rlel			rdr			llel			ldr			s2			lic			ric			lasi			rasi			rpsi			lpsi			rgt			lgt			rth1			rth2			rth3			rth4			rlfc			rmfc			rsh1			rsh2			rsh3			rsh4			rlmal			rmmal			rcal			rtoe			rmt5			rmt1			lth1			lth2			lth4			lth3			llfc			lmfc			lsh1			lsh2			lsh3			lsh4			llmal			lmmal			lcal			ltoe			lmt5			SBIKE			LBIKE			RBIKE			
		X1	Y1	Z1	X2	Y2	Z2	X3	Y3	Z3	X4	Y4	Z4	X5	Y5	Z5	X6	Y6	Z6	X7	Y7	Z7	X8	Y8	Z8	X9	Y9	Z9	X10	Y10	Z10	X11	Y11	Z11	X12	Y12	Z12	X13	Y13	Z13	X14	Y14	Z14	X15	Y15	Z15	X16	Y16	Z16	X17	Y17	Z17	X18	Y18	Z18	X19	Y19	Z19	X20	Y20	Z20	X21	Y21	Z21	X22	Y22	Z22	X23	Y23	Z23	X24	Y24	Z24	X25	Y25	Z25	X26	Y26	Z26	X27	Y27	Z27	X28	Y28	Z28	X29	Y29	Z29	X30	Y30	Z30	X31	Y31	Z31	X32	Y32	Z32	X33	Y33	Z33	X34	Y34	Z34	X35	Y35	Z35	X36	Y36	Z36	X37	Y37	Z37	X38	Y38	Z38	X39	Y39	Z39	X40	Y40	Z40	X41	Y41	Z41	X42	Y42	Z42	X43	Y43	Z43	X44	Y44	Z44	X45	Y45	Z45	X46	Y46	Z46	X47	Y47	Z47	X48	Y48	Z48	X49	Y49	Z49	X50	Y50	Z50	X51	Y51	Z51	
1	0.0050	450.707801	1307.290663	-122.341543	468.802570	1314.085532	-469.670340	487.808765	1333.904384	-300.481431	414.617542	1215.900196	-300.833196	573.847476	1067.803644	-104.696886	718.411734	889.708326	-114.947754	565.363635	1064.342281	-530.446792	704.029323	881.878228	-503.397885	NaN	NaN	NaN	NaN	NaN	NaN	NaN	NaN	NaN	174.590469	1069.873294	-428.701756	109.003566	1113.913789	-170.911469	0.640724	1137.656935	-281.964201	10.749882	1142.854121	-366.894723	89.203176	1040.797377	-126.312721	77.287629	1008.605439	-489.635157	179.151971	1026.703403	-129.575015	267.515398	1022.364290	-141.705399	342.741210	987.880986	-118.966997	274.341256	1044.431010	-171.998307	468.638464	907.195594	-151.727497	462.062525	884.775523	-264.389275	451.672851	795.165530	-135.067694	432.596487	710.394693	-152.094902	378.659907	641.669047	-143.870124	444.514735	705.238683	-188.680855	316.426352	539.369561	-146.904404	326.095709	558.078040	-227.953331	239.223203	495.286876	-187.466653	523.690984	467.629980	-187.515590	415.238241	458.171869	-128.907225	441.222124	470.104048	-236.727068	178.405874	909.390651	-506.338588	244.293531	852.989185	-503.522413	271.338864	871.227345	-484.633707	271.602105	767.856591	-502.940670	323.564404	679.431069	-480.263650	329.924589	649.446513	-378.486239	284.380572	581.660529	-501.334382	262.689028	499.450375	-484.588523	200.687601	434.179942	-488.309303	280.384017	493.371652	-448.602087	137.420291	354.441690	-471.347039	152.741257	343.900455	-395.854923	60.710554	344.851208	-430.842064	284.417484	164.724679	-439.890750	185.341572	210.032957	-499.259980	-126.695133	871.704295	-308.139874	37.216003	86.588539	-514.339958	34.359627	82.675768	-114.103785	
2	0.0100	450.697439	1307.276595	-122.297231	468.808509	1314.072576	-469.624863	487.817302	1333.888873	-300.437201	414.606633	1215.868176	-300.739414	573.850867	1067.789307	-104.673329	718.417339	889.710647	-114.931981	565.349785	1064.348709	-530.430019	704.025789	881.884087	-503.381106	NaN	NaN	NaN	NaN	NaN	NaN	NaN	NaN	NaN	174.573053	1069.895213	-428.717396	109.039500	1113.885191	-170.910774	0.668238	1137.656828	-281.959471	10.749699	1142.869825	-366.884943	89.220228	1040.790469	-126.311414	77.282508	1008.660476	-489.644127	179.138679	1026.680208	-129.566504	267.490875	1022.333949	-141.689432	342.722909	987.838059	-118.924727	274.320008	1044.432737	-171.970859	468.593152	907.174226	-151.705140	462.032490	884.754789	-264.382065	451.617903	795.117165	-135.069263	432.556386	710.381779	-152.095665	378.602559	641.648770	-143.862735	444.461215	705.201813	-188.663054	316.369522	539.370372	-146.896322	326.051284	558.059238	-227.979459	239.166683	495.257531	-187.462323	523.666215	467.675012	-187.496990	415.210071	458.192548	-128.925335	441.185923	470.115820	-236.707802	178.425805	909.434387	-506.332341	244.275093	852.997438	-503.384189	271.517669	870.693789	-484.263892	271.668062	767.915598	-502.912888	323.604250	679.482998	-480.241523	329.970862	649.518519	-378.446871	284.462005	581.714702	-501.316881	262.797774	499.497931	-484.604800	200.798608	434.215865	-488.333889	280.473348	493.412189	-448.570973	137.557905	354.447461	-471.369777	152.888227	343.956658	-395.856771	60.846854	344.921097	-430.855752	284.434268	164.622825	-439.885783	185.395998	210.021478	-499.263381	-126.690775	871.708605	-308.136308	37.230821	86.582323	-514.353234	34.080116	82.843597	-114.251980	
3	0.0150	450.706182	1307.253488	-122.284157	468.819659	1314.087677	-469.592834	487.830609	1333.872119	-300.393780	414.607052	1215.854885	-300.745982	573.855895	1067.782976	-104.657120	718.420735	889.715121	-114.922073	565.356024	1064.356951	-530.412083	704.033378	881.887960	-503.400383	NaN	NaN	NaN	NaN	NaN	NaN	NaN	NaN	NaN	174.557086	1069.919557	-428.722710	109.037885	1113.880415	-170.900771	0.642959	1137.671448	-281.915710	10.746826	1142.890698	-366.848449	89.202057	1040.780015	-126.295366	77.281850	1008.690483	-489.635583	179.120429	1026.679731	-129.545708	267.459273	1022.321265	-141.676576	342.698351	987.818406	-118.911175	274.303011	1044.423142	-171.957386	468.575788	907.159206	-151.683058	462.004898	884.735857	-264.363956	451.580655	795.112762	-135.065402	432.523142	710.365345	-152.076729	378.575172	641.648657	-143.863481	444.422016	705.185535	-188.638209	316.315082	539.365634	-146.893920	326.022952	558.047227	-227.995206	239.125287	495.242771	-187.457881	523.646111	467.716988	-187.492736	415.181199	458.204760	-128.923081	441.155148	470.150374	-236.700902	178.442529	909.485947	-506.306863	244.300522	853.082179	-503.346412	271.529209	870.796992	-484.240639	271.721017	767.978109	-502.881843	323.650964	679.549006	-480.233285	330.023928	649.610197	-378.429262	284.547358	581.780702	-501.314760	262.902354	499.550377	-484.613417	200.913185	434.250199	-488.318426	280.561250	493.488291	-448.550963	137.712271	354.465729	-471.389685	152.996359	343.980664	-395.863959	61.003888	345.005086	-430.871040	284.447943	164.531774	-439.889495	185.437314	209.989936	-499.253837	-126.694879	871.706045	-308.140258	37.223751	86.591607	-514.343629	34.095562	82.827157	-114.230968	
4	0.0200	450.696546	1307.255002	-122.251287	468.654184	1314.638444	-469.143745	488.020035	1333.238394	-300.592566	414.613259	1215.824225	-300.682184	573.874516	1067.779808	-104.659815	718.430012	889.706307	-114.919550	565.492642	1064.438727	-530.038644	703.442151	882.302275	-503.801384	-14.976874	1110.298976	-319.801233	NaN	NaN	NaN	NaN	NaN	NaN	174.718020	1070.322264	-429.502232	108.616374	1113.329838	-171.672166	1.536867	1137.482045	-282.232340	11.016902	1143.142592	-365.481522	89.177552	1040.775191	-126.281154	77.272144	1008.907367	-489.585886	179.078988	1026.688639	-129.511453	267.442885	1022.311425	-141.642669	342.672422	987.813280	-118.887821	273.939546	1044.611482	-171.663079	468.683263	907.074907	-151.741484	461.987273	884.749495	-264.353716	451.544205	795.086005	-135.055522	429.429705	708.233484	-153.429696	378.529131	641.620335	-143.851911	444.808075	704.913350	-188.806695	315.610448	540.363290	-146.255782	325.462948	558.158041	-228.055036	238.870450	495.355753	-187.324395	523.612670	467.751615	-187.495843	415.155302	458.207809	-128.913536	441.274478	470.133880	-236.975651	178.456957	909.546322	-506.286918	244.463172	852.863176	-503.300250	271.451787	871.493571	-484.594534	271.787412	768.080722	-502.849926	323.892220	679.461175	-480.333629	330.077631	649.694402	-378.397559	284.628256	581.844562	-501.304448	263.108644	499.604928	-484.877223	201.063028	434.301869	-488.329986	280.685815	493.544126	-448.541318	137.872177	354.474923	-471.417328	153.142763	343.973425	-395.866869	61.169703	345.084652	-430.875244	284.482124	164.435941	-439.907777	185.443757	209.841124	-499.331164	-126.675163	871.710632	-308.194426	37.229453	86.574967	-514.347841	34.397468	82.651045	-114.086460	
5	0.0250	450.389717	1307.564937	-121.684596	468.481456	1314.482833	-468.990453	487.668747	1333.327774	-300.074891	414.637919	1215.802556	-300.657433	573.580832	1068.156047	-104.140776	718.394235	890.319460	-114.734086	565.278623	1064.580157	-529.517564	703.098222	882.335270	-503.595484	-14.966487	1110.296968	-319.749668	NaN	NaN	NaN	NaN	NaN	NaN	175.284373	1071.001327	-430.407977	108.467162	1113.922595	-171.110464	1.361312	1137.521430	-282.229904	11.021458	1143.183320	-365.440924	89.175404	1040.768353	-126.158777	77.261186	1008.985655	-489.472854	179.129968	1027.052308	-129.120485	266.981586	1022.859067	-141.213141	342.306171	988.277941	-118.295430	273.922975	1044.633448	-171.664307	468.554725	907.209265	-151.604514	461.571940	884.982742	-263.905047	451.073059	795.443519	-134.600434	430.213114	709.229198	-152.303751	378.135199	642.007931	-143.524010	444.679798	704.983048	-188.570238	315.837772	540.939102	-145.699116	324.633042	558.621647	-227.475609	238.839376	495.276494	-187.365589	523.303681	468.028263	-187.257550	414.758332	458.674410	-128.443632	441.120140	470.613878	-236.892310	178.238041	909.850642	-505.620581	244.484449	852.904469	-503.033782	271.499902	871.640320	-484.455311	271.809591	768.223595	-502.615605	323.456304	679.947767	-479.616715	329.714141	650.469267	-377.654722	284.462588	582.182766	-500.786674	263.007865	499.997602	-484.496354	201.126534	434.302518	-487.964589	280.744751	493.650381	-448.272990	138.002276	354.651320	-471.431052	152.064171	345.091151	-395.120454	61.311583	345.167404	-430.842862	284.447501	164.408833	-439.740178	185.480432	209.905903	-499.279422	-126.648121	871.628563	-308.312183	37.373697	87.076113	-513.947038	33.545348	83.656291	-113.901887	
